<svg width="108" height="70" viewBox="0 0 108 70" fill="none" xmlns="http://www.w3.org/2000/svg">
<path d="M32.5053 69.9983L44.6345 52.2932H67.0003C69.1017 52.2932 70.9296 52.3619 72.4826 52.4991C71.5767 51.2635 70.5252 49.7036 69.3298 47.8159C68.1327 45.9299 66.9842 44.1623 65.8858 42.5148L54.2418 24.2949L23.7732 70H0L41.6273 7.72077C42.9861 5.7318 44.6993 3.94706 46.7699 2.36824C48.8389 0.791134 51.4595 0 54.6301 0C57.8007 0 60.2094 0.737909 62.2477 2.21376C64.2859 3.68961 66.0152 5.52586 67.4387 7.72077L108 70H32.5069L32.5053 69.9983Z" fill="white"/>
</svg>
