<svg width="133" height="28" viewBox="0 0 133 28" fill="none" xmlns="http://www.w3.org/2000/svg">
<path d="M133 10.6164C133 12.1296 132.692 13.5002 132.077 14.729C131.462 15.9584 130.561 17.0048 129.373 17.8694C128.185 18.7341 126.738 19.4089 125.034 19.8953C123.329 20.3817 121.386 20.6248 119.206 20.6248H104.532V27.5536H95.8954V13.6954H120.044C121.386 13.6954 122.427 13.4117 123.168 12.8443C123.908 12.2768 124.279 11.521 124.279 10.5752C124.279 9.62952 123.909 8.88037 123.168 8.32645C122.427 7.77321 121.386 7.49557 120.044 7.49557H95.8954L101.639 0.445251H119.248C121.428 0.445251 123.371 0.695181 125.076 1.19506C126.781 1.69494 128.221 2.39073 129.394 3.28173C130.568 4.1734 131.462 5.24071 132.077 6.48298C132.692 7.72592 133 9.10328 133 10.6158V10.6164Z" fill="white"/>
<path d="M14.0445 27.7771L19.2852 20.8079H28.9487C29.8566 20.8079 30.6464 20.8349 31.3174 20.8889C30.926 20.4025 30.4717 19.7885 29.9552 19.0454C29.438 18.303 28.9417 17.6073 28.4671 16.9588L23.4362 9.78685L10.2716 27.7778H0L17.9858 3.26276C18.5729 2.47984 19.3131 1.77732 20.2078 1.15584C21.1017 0.535048 22.234 0.223633 23.6039 0.223633C24.9738 0.223633 26.0146 0.514097 26.8952 1.09504C27.7759 1.67598 28.523 2.39878 29.1381 3.26276L46.6633 27.7778H14.0452L14.0445 27.7771Z" fill="white"/>
<path d="M73.3563 17.4647C72.7413 16.4109 72.2101 15.4861 71.7634 14.689C71.3161 13.8926 70.9107 13.1765 70.548 12.5416C70.1845 11.9073 69.87 11.3331 69.6044 10.8197C69.3381 10.307 69.0802 9.80642 68.8286 9.32072C68.6042 9.80709 68.3603 10.307 68.0947 10.8197C67.8291 11.3331 67.5216 11.9073 67.1721 12.5416C66.8219 13.1765 66.4242 13.8858 65.9769 14.6688C65.5296 15.4523 64.9984 16.3704 64.384 17.4242L59.8982 25.123C59.395 25.9876 58.7589 26.6828 57.9908 27.2097C57.222 27.7366 56.2644 28 55.1189 28C53.9733 28 53.0437 27.696 52.163 27.0881C51.2824 26.4801 50.6463 25.5418 50.2556 24.2719L43.1285 0.445845H51.8073L54.4486 9.88681C54.8952 11.4263 55.2663 12.778 55.5599 13.9385C55.8534 15.1004 56.1114 16.2346 56.3357 17.3424C56.7823 16.3974 57.3066 15.3504 57.9076 14.202C58.508 13.0543 59.2978 11.6026 60.2763 9.84627L64.0499 3.03913C64.4127 2.36429 64.7761 1.83064 65.1403 1.43885C65.503 1.04772 65.8874 0.743743 66.2935 0.526903C66.6982 0.310739 67.1246 0.168878 67.5719 0.101327C68.0185 0.0344511 68.4945 0 68.997 0C69.5275 0 70.0168 0.0344511 70.4641 0.101327C70.9107 0.168878 71.3371 0.310739 71.7432 0.526903C72.1479 0.743743 72.54 1.04705 72.9174 1.43885C73.2948 1.83064 73.6645 2.36429 74.0287 3.03913L77.7603 9.88681C78.2908 10.8325 78.7521 11.6634 79.1435 12.3788C79.5349 13.0948 79.8837 13.7433 80.1919 14.3236C80.4995 14.9045 80.7714 15.4382 81.0097 15.9239C81.2467 16.4102 81.4773 16.8831 81.7017 17.3418C81.9253 16.2616 82.1972 15.1268 82.5194 13.9379C82.8402 12.7496 83.2114 11.3993 83.6301 9.88614L86.2713 0.445169H94.7404L87.4875 24.2712C87.0954 25.5411 86.4601 26.4794 85.5801 27.0874C84.6994 27.6953 83.7146 27.9993 82.6243 27.9993C81.5339 27.9993 80.5624 27.742 79.7943 27.2292C79.0254 26.7165 78.3754 26.0133 77.8449 25.1223L73.3591 17.464L73.3563 17.4647Z" fill="white"/>
</svg>
